<?xml version="1.0" encoding="utf-8"?>
<!-- Generator: Adobe Illustrator 16.0.0, SVG Export Plug-In . SVG Version: 6.00 Build 0)  -->
<!DOCTYPE svg PUBLIC "-//W3C//DTD SVG 1.1//EN" "http://www.w3.org/Graphics/SVG/1.1/DTD/svg11.dtd">
<svg version="1.1" id="图层_3" xmlns="http://www.w3.org/2000/svg" xmlns:xlink="http://www.w3.org/1999/xlink" x="0px" y="0px"
	 width="192px" height="192px" viewBox="0 0 192 192" enable-background="new 0 0 192 192" xml:space="preserve">
<g>
	<path fill="#67B7F6" d="M161.934,172.387H114.71c-6.788,0-12.29-5.504-12.29-12.291V33.921c0-6.788,5.502-12.29,12.29-12.29h47.224
		c5.818,0,10.533,4.716,10.533,10.533v129.688C172.467,167.669,167.751,172.387,161.934,172.387z"/>
	<path fill="#279BF4" d="M91.951,171.402H30.534c-5.818,0-10.534-4.717-10.534-10.533V31.181c0-5.817,4.715-10.533,10.534-10.533
		h61.417V171.402L91.951,171.402z"/>
	<path fill="#279BF4" d="M146.458,182.256l-54.507-10.441V21.061l55.247-11.314c3.741-0.766,7.188,2.458,7.188,6.726v158.281
		C154.385,179.47,150.603,183.051,146.458,182.256z"/>
	<g>
		<path fill="#FFFFFF" d="M62.794,113.854c-9.476,0-12.756,3.547-12.756,8.866c0,5.32,3.28,8.865,12.756,8.865
			c9.476,0,12.755-3.545,12.755-8.865C75.55,117.4,72.27,113.854,62.794,113.854L62.794,113.854z M132.04,67.751h-7.289
			c-1.094,0-1.821,0.709-1.821,1.773v8.865h-3.645V65.978c0-1.063-0.729-1.773-1.821-1.773h-7.29c-1.094,0-1.823,0.709-1.823,1.773
			v8.867h-3.645v-8.867c0-1.063-0.729-1.773-1.822-1.773h-7.288c-1.093,0-1.823,0.709-1.823,1.773v8.867h-3.644v-5.319
			c0-1.064-0.729-1.773-1.822-1.773h-7.289c-1.093,0-1.822,0.709-1.822,1.773v8.865H75.55v-7.092c0-5.32-3.28-8.866-12.755-8.866
			s-12.756,3.545-12.756,8.866v42.556c2.916-2.482,6.925-3.546,12.756-3.546c5.831,0,9.84,1.063,12.755,3.546v-3.546h3.646v8.866
			c0,1.063,0.729,1.772,1.822,1.772h7.289c1.093,0,1.822-0.709,1.822-1.772v-12.413h3.644v8.867c0,1.064,0.729,1.772,1.823,1.772
			h7.288c1.093,0,1.822-0.708,1.822-1.772v-8.867h3.645v8.867c0,1.064,0.729,1.772,1.823,1.772h7.29
			c1.093,0,1.819-0.708,1.819-1.772v-5.32h3.646v8.866c0,1.063,0.728,1.772,1.821,1.772h7.289c1.094,0,1.822-0.709,1.822-1.772
			V69.525C133.862,68.461,133.134,67.751,132.04,67.751L132.04,67.751z M79.195,106.761H75.55V81.937h3.646V106.761L79.195,106.761
			 M93.772,103.214h-3.644V78.39h3.644V103.214L93.772,103.214 M108.351,103.214h-3.645V78.39h3.645V103.214 M122.93,106.761h-3.645
			V81.937h3.645V106.761L122.93,106.761"/>
	</g>
	<path opacity="0.28" fill="#0B5282" enable-background="new    " d="M146.458,182.123L91.951,171.68V20.926l55.247-11.313
		c3.741-0.766,7.188,2.459,7.188,6.726V174.62C154.385,179.336,150.603,182.915,146.458,182.123z"/>
</g>
</svg>
